<?xml version="1.0" encoding="UTF-8"?>
<svg xmlns="http://www.w3.org/2000/svg" xmlns:xlink="http://www.w3.org/1999/xlink" width="277pt" height="277pt" viewBox="0 0 277 277" version="1.1">
<g id="surface1">
<path style=" stroke:none;fill-rule:evenodd;fill:rgb(41.999817%,0.39978%,19.999695%);fill-opacity:1;" d="M 138.730469 0.078125 C 215.054688 0.078125 276.921875 61.957031 276.921875 138.269531 C 276.921875 214.578125 215.054688 276.457031 138.730469 276.457031 C 62.410156 276.457031 0.542969 214.578125 0.542969 138.269531 C 0.542969 61.957031 62.410156 0.078125 138.730469 0.078125 "/>
<path style=" stroke:none;fill-rule:evenodd;fill:rgb(100%,94.898987%,0%);fill-opacity:1;" d="M 137.628906 33.828125 C 145.273438 44.683594 146.808594 20.691406 139.28125 8.21875 C 168.035156 12.402344 179.355469 26.953125 181.773438 41.746094 C 182.359375 45.351563 183.96875 51.28125 188.136719 48.328125 C 192.394531 45.316406 196.121094 27.605469 196.433594 22.128906 C 215.59375 33.617188 221.347656 49.289063 216.347656 68.316406 C 214.933594 73.699219 219.207031 75.011719 222.363281 72.007813 C 229.523438 65.179688 234.203125 58.296875 236.960938 51.367188 C 248.980469 68.558594 248.265625 85.707031 237.023438 102.820313 C 233.894531 107.59375 235.644531 110.238281 240.957031 108.328125 C 249.089844 105.40625 256.125 101.5625 261.917969 96.6875 C 267.09375 117.679688 260.320313 132.566406 243.808594 142.476563 C 237.332031 146.367188 241.304688 149.003906 246.609375 149.710938 C 254.59375 150.785156 261.925781 149.3125 268.773438 145.921875 C 267.105469 165.542969 255.976563 177.664063 237.644531 180.949219 C 211.789063 185.585938 249.09375 194.535156 255.925781 195.09375 C 246.851563 209.726563 233.761719 217.441406 214.863281 215.125 C 189.804688 212.046875 220.039063 233.082031 225.972656 235.761719 C 208.628906 247.484375 191.847656 246.878906 175.523438 236.53125 C 169.515625 232.648438 168.535156 236.351563 170.417969 241.457031 C 173.507813 249.824219 177.5625 256.957031 182.949219 262.382813 C 163.007813 263.746094 145.242188 261.003906 136.386719 245.59375 C 133.011719 239.722656 128.582031 236.394531 128.28125 246.574219 C 128.015625 255.582031 129.230469 263.285156 131.796875 268.316406 C 110.476563 263.570313 96.859375 253.46875 95.472656 234.871094 C 94.816406 225.277344 90.265625 230.605469 87.761719 235.53125 C 84.820313 241.335938 83.605469 248.359375 83.046875 255.847656 C 69.617188 250.394531 60.695313 238.957031 61.566406 214.527344 C 61.703125 210.625 64.171875 200.144531 56.433594 206.996094 C 50.625 212.136719 46.019531 218.503906 42.007813 225.476563 C 31.113281 213.542969 28.457031 198.679688 39.027344 179.113281 C 40.84375 175.765625 46.59375 169.886719 37.816406 171.910156 C 29.25 173.644531 21.859375 177.773438 15.410156 183.835938 C 12.679688 167.195313 14.613281 151.445313 31.0625 138.46875 C 37.578125 133.332031 37.785156 132.070313 31.257813 131.085938 C 23.863281 130.375 16.332031 131.375 8.691406 133.785156 C 9.738281 116.582031 18.097656 104.351563 41.429688 97.0625 C 47.675781 95.917969 47.972656 94 42.859375 91.382813 C 37.011719 88.339844 29.023438 86.3125 19.148438 85.175781 C 27.007813 69.941406 40.480469 62.707031 59.730469 63.703125 C 64.8125 63.964844 74.664063 65.84375 67.179688 57.226563 C 62.308594 51.617188 55.574219 47.976563 48.238281 45.277344 C 59.910156 33.089844 75.203125 30.863281 94.707031 40.203125 C 98.21875 41.886719 103.980469 46.421875 103.449219 38.546875 C 101.6875 31.351563 98.515625 24.414063 88.9375 18.390625 C 109.09375 12.085938 125.359375 17.125 137.628906 33.828125 "/>
<path style=" stroke:none;fill-rule:nonzero;fill:rgb(41.999817%,0.39978%,19.999695%);fill-opacity:1;" d="M 138.730469 40.8125 C 165.644531 40.8125 190.007813 51.722656 207.644531 69.355469 C 225.277344 86.992188 236.1875 111.359375 236.1875 138.269531 C 236.1875 165.175781 225.277344 189.542969 207.644531 207.179688 C 190.007813 224.8125 165.644531 235.722656 138.730469 235.722656 C 111.820313 235.722656 87.457031 224.8125 69.820313 207.179688 C 52.1875 189.542969 41.277344 165.175781 41.277344 138.269531 C 41.277344 111.359375 52.1875 86.992188 69.820313 69.355469 C 87.457031 51.722656 111.820313 40.8125 138.730469 40.8125 Z M 205.246094 71.753906 C 188.226563 54.730469 164.707031 44.199219 138.730469 44.199219 C 112.757813 44.199219 89.238281 54.730469 72.21875 71.753906 C 55.195313 88.777344 44.664063 112.292969 44.664063 138.269531 C 44.664063 164.242188 55.195313 187.757813 72.21875 204.78125 C 89.238281 221.804688 112.757813 232.335938 138.730469 232.335938 C 164.707031 232.335938 188.226563 221.804688 205.246094 204.78125 C 222.269531 187.757813 232.800781 164.242188 232.800781 138.269531 C 232.800781 112.292969 222.269531 88.777344 205.246094 71.753906 "/>
<path style=" stroke:none;fill-rule:nonzero;fill:rgb(41.999817%,0.39978%,19.999695%);fill-opacity:1;" d="M 98.074219 216.207031 L 118.515625 160.5625 L 119.609375 160.960938 L 118.515625 160.558594 C 118.699219 160.054688 119.199219 159.753906 119.714844 159.800781 L 157.050781 159.773438 L 157.050781 159.769531 C 157.695313 159.769531 158.21875 160.292969 158.21875 160.9375 C 158.21875 161.296875 158.054688 161.621094 157.796875 161.835938 L 99.953125 217.503906 L 99.957031 217.503906 C 99.492188 217.949219 98.753906 217.9375 98.308594 217.472656 C 97.972656 217.125 97.898438 216.625 98.074219 216.207031 Z M 120.421875 162.121094 L 101.984375 212.320313 L 154.164063 162.101563 Z M 157.796875 161.835938 C 157.59375 162.003906 157.335938 162.105469 157.050781 162.105469 L 157.796875 161.835938 "/>
<path style=" stroke:none;fill-rule:nonzero;fill:rgb(41.999817%,0.39978%,19.999695%);fill-opacity:1;" d="M 178.863281 216.207031 L 158.425781 160.5625 L 157.328125 160.960938 L 158.425781 160.558594 C 158.238281 160.054688 157.738281 159.753906 157.226563 159.800781 L 119.890625 159.773438 L 119.890625 159.769531 C 119.246094 159.769531 118.722656 160.292969 118.722656 160.9375 C 118.722656 161.296875 118.886719 161.621094 119.144531 161.835938 L 176.984375 217.503906 L 176.980469 217.503906 C 177.445313 217.949219 178.183594 217.9375 178.632813 217.472656 C 178.964844 217.125 179.042969 216.625 178.863281 216.207031 Z M 156.515625 162.121094 L 174.953125 212.320313 L 122.777344 162.101563 Z M 119.144531 161.835938 C 119.347656 162.003906 119.605469 162.105469 119.886719 162.105469 L 119.144531 161.835938 "/>
<path style=" stroke:none;fill-rule:nonzero;fill:rgb(41.999817%,0.39978%,19.999695%);fill-opacity:1;" d="M 155.746094 158.542969 L 148.582031 136.96875 L 130.59375 136.96875 Z M 149.25 136.035156 L 150.132813 135.742188 L 158.601563 161.238281 C 158.746094 161.566406 158.691406 161.960938 158.4375 162.242188 C 158.09375 162.621094 157.503906 162.648438 157.121094 162.304688 L 157.746094 161.613281 L 157.121094 162.304688 L 127.589844 136.757813 C 127.378906 136.589844 127.246094 136.328125 127.246094 136.035156 C 127.246094 135.519531 127.664063 135.101563 128.179688 135.101563 L 149.25 135.101563 C 149.640625 135.101563 150.007813 135.351563 150.136719 135.742188 L 149.25 136.035156 "/>
<path style=" stroke:none;fill-rule:nonzero;fill:rgb(41.999817%,0.39978%,19.999695%);fill-opacity:1;" d="M 118.273438 161.238281 L 126.742188 135.742188 L 127.625 136.035156 L 126.738281 135.742188 C 126.867188 135.351563 127.234375 135.101563 127.625 135.101563 L 127.640625 135.101563 L 149.101563 135.125 C 149.617188 135.125 150.035156 135.542969 150.035156 136.058594 C 150.035156 136.351563 149.902344 136.609375 149.691406 136.78125 L 119.753906 162.304688 L 119.128906 161.613281 L 119.753906 162.304688 C 119.371094 162.648438 118.78125 162.621094 118.4375 162.242188 C 118.179688 161.960938 118.128906 161.566406 118.273438 161.238281 Z M 128.292969 136.96875 L 121.128906 158.542969 L 146.6875 136.992188 Z M 128.292969 136.96875 "/>
<path style=" stroke:none;fill-rule:nonzero;fill:rgb(41.999817%,0.39978%,19.999695%);fill-opacity:1;" d="M 128.421875 115.648438 L 149.394531 135.371094 C 149.769531 135.722656 149.789063 136.3125 149.433594 136.6875 C 149.230469 136.90625 148.945313 137.003906 148.671875 136.980469 L 127.742188 136.992188 L 127.742188 136.996094 C 127.226563 136.996094 126.808594 136.578125 126.808594 136.0625 L 126.808594 116.289063 C 126.808594 115.773438 127.226563 115.355469 127.742188 115.355469 C 128.007813 115.355469 128.25 115.46875 128.421875 115.648438 Z M 146.410156 135.121094 L 128.675781 118.441406 L 128.675781 135.132813 Z M 146.410156 135.121094 "/>
<path style=" stroke:none;fill-rule:nonzero;fill:rgb(41.999817%,0.39978%,19.999695%);fill-opacity:1;" d="M 148.074219 115.648438 L 127.105469 135.371094 L 127.101563 135.371094 C 126.726563 135.722656 126.710938 136.3125 127.0625 136.6875 C 127.265625 136.90625 127.550781 137.003906 127.824219 136.980469 L 148.753906 136.992188 L 148.753906 136.996094 C 149.269531 136.996094 149.6875 136.578125 149.6875 136.0625 L 149.6875 116.289063 C 149.6875 115.773438 149.269531 115.355469 148.753906 115.355469 C 148.488281 115.355469 148.246094 115.46875 148.074219 115.648438 Z M 130.089844 135.121094 L 147.820313 118.441406 L 147.820313 135.132813 Z M 130.089844 135.121094 "/>
<path style=" stroke:none;fill-rule:nonzero;fill:rgb(41.999817%,0.39978%,19.999695%);fill-opacity:1;" d="M 128.421875 96.085938 L 149.394531 115.804688 C 149.769531 116.15625 149.789063 116.746094 149.433594 117.121094 C 149.230469 117.339844 148.945313 117.4375 148.671875 117.414063 L 127.742188 117.425781 L 127.742188 117.429688 C 127.226563 117.429688 126.808594 117.011719 126.808594 116.496094 L 126.808594 96.722656 C 126.808594 96.207031 127.226563 95.789063 127.742188 95.789063 C 128.007813 95.789063 128.25 95.902344 128.421875 96.085938 Z M 146.410156 115.554688 L 128.675781 98.878906 L 128.675781 115.566406 Z M 146.410156 115.554688 "/>
<path style=" stroke:none;fill-rule:nonzero;fill:rgb(41.999817%,0.39978%,19.999695%);fill-opacity:1;" d="M 148.074219 96.085938 L 127.105469 115.804688 L 127.101563 115.804688 C 126.726563 116.15625 126.710938 116.746094 127.0625 117.121094 C 127.265625 117.339844 127.550781 117.4375 127.824219 117.414063 L 148.753906 117.425781 L 148.753906 117.429688 C 149.269531 117.429688 149.6875 117.011719 149.6875 116.496094 L 149.6875 96.722656 C 149.6875 96.207031 149.269531 95.789063 148.753906 95.789063 C 148.488281 95.789063 148.246094 95.902344 148.074219 96.085938 Z M 130.089844 115.554688 L 147.820313 98.878906 L 147.820313 115.566406 Z M 130.089844 115.554688 "/>
<path style=" stroke:none;fill-rule:nonzero;fill:rgb(41.999817%,0.39978%,19.999695%);fill-opacity:1;" d="M 128.421875 77.550781 L 149.394531 97.269531 C 149.769531 97.621094 149.789063 98.214844 149.433594 98.589844 C 149.230469 98.804688 148.945313 98.902344 148.671875 98.878906 L 127.742188 98.890625 L 127.742188 98.894531 C 127.226563 98.894531 126.808594 98.476563 126.808594 97.964844 L 126.808594 78.1875 C 126.808594 77.671875 127.226563 77.253906 127.742188 77.253906 C 128.007813 77.253906 128.25 77.367188 128.421875 77.550781 Z M 146.410156 97.019531 L 128.675781 80.34375 L 128.675781 97.03125 Z M 146.410156 97.019531 "/>
<path style=" stroke:none;fill-rule:nonzero;fill:rgb(41.999817%,0.39978%,19.999695%);fill-opacity:1;" d="M 148.074219 77.550781 L 127.105469 97.269531 L 127.101563 97.269531 C 126.726563 97.621094 126.710938 98.214844 127.0625 98.589844 C 127.265625 98.804688 127.550781 98.902344 127.824219 98.878906 L 148.753906 98.890625 L 148.753906 98.894531 C 149.269531 98.894531 149.6875 98.476563 149.6875 97.964844 L 149.6875 78.1875 C 149.6875 77.671875 149.269531 77.253906 148.753906 77.253906 C 148.488281 77.253906 148.246094 77.367188 148.074219 77.550781 Z M 130.089844 97.019531 L 147.820313 80.34375 L 147.820313 97.03125 Z M 130.089844 97.019531 "/>
<path style=" stroke:none;fill-rule:nonzero;fill:rgb(41.999817%,0.39978%,19.999695%);fill-opacity:1;" d="M 100.28125 79.105469 L 101.070313 79.105469 L 101.070313 78.394531 L 101.40625 78.394531 L 101.40625 79.105469 L 102.179688 79.105469 C 102.328125 79.105469 102.464844 79.179688 102.5625 79.292969 C 102.65625 79.40625 102.71875 79.5625 102.71875 79.734375 C 102.71875 79.910156 102.65625 80.066406 102.5625 80.179688 L 102.519531 80.226563 L 102.5625 80.269531 C 102.65625 80.382813 102.71875 80.542969 102.71875 80.714844 C 102.71875 80.878906 102.664063 81.027344 102.574219 81.140625 C 102.664063 81.253906 102.71875 81.40625 102.71875 81.570313 C 102.71875 81.742188 102.65625 81.898438 102.5625 82.015625 C 102.464844 82.128906 102.328125 82.199219 102.179688 82.199219 L 100.28125 82.199219 C 100.132813 82.199219 100 82.128906 99.902344 82.015625 C 99.804688 81.898438 99.742188 81.742188 99.742188 81.570313 C 99.742188 81.40625 99.800781 81.253906 99.890625 81.140625 C 99.800781 81.027344 99.742188 80.878906 99.742188 80.714844 C 99.742188 80.542969 99.804688 80.382813 99.902344 80.269531 L 99.945313 80.226563 L 99.902344 80.179688 C 99.804688 80.066406 99.742188 79.910156 99.742188 79.734375 C 99.742188 79.5625 99.804688 79.40625 99.902344 79.292969 C 100 79.179688 100.132813 79.105469 100.28125 79.105469 "/>
<path style=" stroke:none;fill-rule:nonzero;fill:rgb(41.999817%,0.39978%,19.999695%);fill-opacity:1;" d="M 148.648438 66.785156 L 176.84375 77.175781 L 176.523438 78.050781 L 176.847656 77.175781 C 177.328125 77.351563 177.578125 77.890625 177.398438 78.371094 C 177.25 78.777344 176.847656 79.019531 176.4375 78.980469 L 99.628906 78.898438 L 99.628906 77.96875 L 99.628906 78.902344 C 99.113281 78.902344 98.695313 78.484375 98.695313 77.96875 C 98.695313 77.539063 98.984375 77.179688 99.378906 77.070313 L 127.804688 66.765625 L 128.121094 67.640625 L 127.804688 66.765625 C 127.917969 66.722656 128.035156 66.703125 128.148438 66.710938 L 137.359375 66.710938 L 138.011719 67.324219 L 138.492188 66.710938 L 148.28125 66.710938 C 148.414063 66.710938 148.535156 66.734375 148.648438 66.785156 Z M 171.292969 77.113281 L 148.117188 68.574219 L 128.277344 68.574219 L 104.910156 77.046875 L 171.292969 77.113281 "/>
<path style=" stroke:none;fill-rule:nonzero;fill:rgb(41.999817%,0.39978%,19.999695%);fill-opacity:1;" d="M 174.085938 79.105469 L 174.875 79.105469 L 174.875 78.394531 L 175.210938 78.394531 L 175.210938 79.105469 L 175.984375 79.105469 C 176.132813 79.105469 176.265625 79.179688 176.363281 79.292969 L 176.367188 79.292969 C 176.460938 79.40625 176.523438 79.5625 176.523438 79.734375 C 176.523438 79.910156 176.460938 80.066406 176.367188 80.179688 L 176.363281 80.179688 L 176.320313 80.226563 L 176.363281 80.269531 L 176.367188 80.269531 C 176.460938 80.382813 176.523438 80.542969 176.523438 80.714844 C 176.523438 80.878906 176.46875 81.027344 176.378906 81.140625 C 176.46875 81.253906 176.523438 81.40625 176.523438 81.570313 C 176.523438 81.742188 176.460938 81.898438 176.367188 82.015625 L 176.363281 82.015625 C 176.265625 82.128906 176.132813 82.199219 175.984375 82.199219 L 174.085938 82.199219 C 173.9375 82.199219 173.804688 82.128906 173.707031 82.015625 C 173.609375 81.898438 173.550781 81.742188 173.550781 81.570313 C 173.550781 81.40625 173.605469 81.253906 173.691406 81.140625 C 173.605469 81.027344 173.550781 80.878906 173.550781 80.714844 C 173.550781 80.542969 173.609375 80.382813 173.707031 80.269531 L 173.75 80.226563 L 173.707031 80.179688 C 173.609375 80.066406 173.550781 79.910156 173.550781 79.734375 C 173.550781 79.5625 173.609375 79.40625 173.707031 79.292969 C 173.804688 79.179688 173.9375 79.105469 174.085938 79.105469 "/>
<path style=" stroke:none;fill-rule:nonzero;fill:rgb(41.999817%,0.39978%,19.999695%);fill-opacity:1;" d="M 100.28125 99.292969 L 101.070313 99.292969 L 101.070313 98.582031 L 101.40625 98.582031 L 101.40625 99.292969 L 102.179688 99.292969 C 102.328125 99.292969 102.464844 99.363281 102.5625 99.476563 C 102.65625 99.589844 102.71875 99.75 102.71875 99.921875 C 102.71875 100.09375 102.65625 100.253906 102.5625 100.367188 L 102.519531 100.410156 L 102.5625 100.453125 C 102.65625 100.570313 102.71875 100.726563 102.71875 100.898438 C 102.71875 101.0625 102.664063 101.214844 102.574219 101.328125 C 102.664063 101.4375 102.71875 101.59375 102.71875 101.757813 C 102.71875 101.929688 102.65625 102.085938 102.5625 102.199219 C 102.464844 102.3125 102.328125 102.386719 102.179688 102.386719 L 100.28125 102.386719 C 100.132813 102.386719 100 102.3125 99.902344 102.199219 C 99.804688 102.085938 99.742188 101.929688 99.742188 101.757813 C 99.742188 101.59375 99.800781 101.4375 99.890625 101.328125 C 99.800781 101.214844 99.742188 101.0625 99.742188 100.898438 C 99.742188 100.726563 99.804688 100.570313 99.902344 100.453125 L 99.945313 100.410156 L 99.902344 100.367188 C 99.804688 100.253906 99.742188 100.09375 99.742188 99.921875 C 99.742188 99.75 99.804688 99.589844 99.902344 99.476563 C 100 99.363281 100.132813 99.292969 100.28125 99.292969 "/>
<path style=" stroke:none;fill-rule:nonzero;fill:rgb(41.999817%,0.39978%,19.999695%);fill-opacity:1;" d="M 148.648438 86.96875 L 176.84375 97.359375 L 176.523438 98.234375 L 176.847656 97.359375 C 177.328125 97.535156 177.578125 98.074219 177.398438 98.558594 C 177.25 98.964844 176.847656 99.203125 176.4375 99.164063 L 99.628906 99.082031 L 99.628906 98.152344 L 99.628906 99.085938 C 99.113281 99.085938 98.695313 98.667969 98.695313 98.152344 C 98.695313 97.726563 98.984375 97.363281 99.378906 97.253906 L 127.804688 86.953125 L 128.121094 87.828125 L 127.804688 86.949219 C 127.917969 86.910156 128.035156 86.890625 128.148438 86.894531 L 148.28125 86.894531 C 148.414063 86.894531 148.535156 86.921875 148.648438 86.96875 Z M 171.292969 97.300781 L 148.117188 88.761719 L 128.277344 88.761719 L 104.910156 97.230469 L 171.292969 97.300781 "/>
<path style=" stroke:none;fill-rule:nonzero;fill:rgb(41.999817%,0.39978%,19.999695%);fill-opacity:1;" d="M 174.085938 99.292969 L 174.875 99.292969 L 174.875 98.582031 L 175.210938 98.582031 L 175.210938 99.292969 L 175.984375 99.292969 C 176.132813 99.292969 176.265625 99.363281 176.363281 99.476563 L 176.367188 99.476563 C 176.460938 99.589844 176.523438 99.75 176.523438 99.921875 C 176.523438 100.09375 176.460938 100.253906 176.367188 100.367188 L 176.363281 100.367188 L 176.320313 100.410156 L 176.363281 100.453125 L 176.367188 100.453125 C 176.460938 100.570313 176.523438 100.726563 176.523438 100.898438 C 176.523438 101.0625 176.46875 101.214844 176.378906 101.328125 C 176.46875 101.4375 176.523438 101.59375 176.523438 101.757813 C 176.523438 101.929688 176.460938 102.085938 176.367188 102.199219 L 176.363281 102.199219 C 176.265625 102.3125 176.132813 102.386719 175.984375 102.386719 L 174.085938 102.386719 C 173.9375 102.386719 173.804688 102.3125 173.707031 102.199219 C 173.609375 102.085938 173.550781 101.929688 173.550781 101.757813 C 173.550781 101.59375 173.605469 101.4375 173.691406 101.328125 C 173.605469 101.214844 173.550781 101.0625 173.550781 100.898438 C 173.550781 100.726563 173.609375 100.570313 173.707031 100.453125 L 173.75 100.410156 L 173.707031 100.367188 C 173.609375 100.253906 173.550781 100.09375 173.550781 99.921875 C 173.550781 99.75 173.609375 99.589844 173.707031 99.476563 C 173.804688 99.363281 173.9375 99.292969 174.085938 99.292969 "/>
<path style=" stroke:none;fill-rule:nonzero;fill:rgb(41.999817%,0.39978%,19.999695%);fill-opacity:1;" d="M 100.09375 117.585938 L 100.882813 117.585938 L 100.882813 116.875 L 101.21875 116.875 L 101.21875 117.585938 L 101.992188 117.585938 C 102.140625 117.585938 102.273438 117.660156 102.371094 117.769531 C 102.46875 117.886719 102.53125 118.042969 102.53125 118.214844 C 102.53125 118.386719 102.46875 118.546875 102.371094 118.660156 L 102.328125 118.703125 L 102.371094 118.75 C 102.46875 118.863281 102.53125 119.019531 102.53125 119.195313 C 102.53125 119.359375 102.476563 119.507813 102.386719 119.621094 C 102.476563 119.734375 102.53125 119.886719 102.53125 120.050781 C 102.53125 120.222656 102.46875 120.378906 102.371094 120.492188 L 102.371094 120.496094 C 102.273438 120.609375 102.140625 120.679688 101.992188 120.679688 L 100.09375 120.679688 C 99.945313 120.679688 99.8125 120.609375 99.714844 120.496094 L 99.714844 120.492188 C 99.617188 120.378906 99.554688 120.222656 99.554688 120.050781 C 99.554688 119.886719 99.609375 119.734375 99.699219 119.621094 C 99.609375 119.507813 99.554688 119.359375 99.554688 119.195313 C 99.554688 119.019531 99.617188 118.863281 99.714844 118.75 L 99.757813 118.703125 L 99.714844 118.660156 C 99.617188 118.546875 99.554688 118.386719 99.554688 118.214844 C 99.554688 118.042969 99.617188 117.886719 99.714844 117.769531 C 99.8125 117.660156 99.945313 117.585938 100.09375 117.585938 "/>
<path style=" stroke:none;fill-rule:nonzero;fill:rgb(41.999817%,0.39978%,19.999695%);fill-opacity:1;" d="M 148.460938 105.265625 L 176.65625 115.652344 L 176.335938 116.527344 L 176.65625 115.652344 C 177.140625 115.832031 177.390625 116.367188 177.210938 116.851563 C 177.0625 117.257813 176.660156 117.496094 176.246094 117.457031 L 99.441406 117.378906 L 99.441406 116.449219 L 99.441406 117.382813 C 98.925781 117.382813 98.507813 116.964844 98.507813 116.449219 C 98.507813 116.019531 98.796875 115.65625 99.191406 115.550781 L 127.617188 105.246094 L 127.933594 106.121094 L 127.617188 105.242188 C 127.730469 105.203125 127.847656 105.183594 127.960938 105.1875 L 148.09375 105.1875 C 148.226563 105.1875 148.347656 105.214844 148.460938 105.265625 Z M 171.105469 115.59375 L 147.929688 107.054688 L 128.089844 107.054688 L 104.722656 115.523438 L 171.105469 115.59375 "/>
<path style=" stroke:none;fill-rule:nonzero;fill:rgb(41.999817%,0.39978%,19.999695%);fill-opacity:1;" d="M 173.898438 117.585938 L 174.6875 117.585938 L 174.6875 116.875 L 175.019531 116.875 L 175.019531 117.585938 L 175.796875 117.585938 C 175.945313 117.585938 176.078125 117.660156 176.175781 117.769531 L 176.179688 117.769531 C 176.273438 117.886719 176.335938 118.042969 176.335938 118.214844 C 176.335938 118.386719 176.273438 118.546875 176.179688 118.660156 L 176.175781 118.660156 L 176.132813 118.703125 L 176.175781 118.75 L 176.179688 118.75 C 176.273438 118.863281 176.335938 119.019531 176.335938 119.195313 C 176.335938 119.359375 176.28125 119.507813 176.191406 119.621094 C 176.28125 119.734375 176.335938 119.886719 176.335938 120.050781 C 176.335938 120.222656 176.273438 120.378906 176.179688 120.492188 L 176.175781 120.496094 C 176.078125 120.609375 175.945313 120.679688 175.796875 120.679688 L 173.898438 120.679688 C 173.75 120.679688 173.617188 120.609375 173.519531 120.496094 L 173.519531 120.492188 C 173.421875 120.378906 173.359375 120.222656 173.359375 120.050781 C 173.359375 119.886719 173.414063 119.734375 173.503906 119.621094 C 173.414063 119.507813 173.359375 119.359375 173.359375 119.195313 C 173.359375 119.019531 173.421875 118.863281 173.519531 118.75 L 173.5625 118.703125 L 173.519531 118.660156 C 173.421875 118.546875 173.359375 118.386719 173.359375 118.214844 C 173.359375 118.042969 173.421875 117.886719 173.519531 117.769531 C 173.617188 117.660156 173.75 117.585938 173.898438 117.585938 "/>
<path style=" stroke:none;fill-rule:nonzero;fill:rgb(41.999817%,0.39978%,19.999695%);fill-opacity:1;" d="M 155.210938 55.964844 L 139.8125 67.855469 L 147.242188 76.289063 Z M 137.890625 66.988281 L 156.675781 52.484375 C 156.929688 52.253906 157.300781 52.171875 157.644531 52.304688 C 158.121094 52.492188 158.359375 53.035156 158.171875 53.511719 L 148.441406 78.339844 C 148.390625 78.496094 148.300781 78.636719 148.171875 78.753906 C 147.785156 79.09375 147.195313 79.054688 146.855469 78.671875 L 147.554688 78.054688 L 146.855469 78.667969 L 137.789063 68.375 C 137.765625 68.351563 137.742188 68.324219 137.71875 68.296875 C 137.40625 67.890625 137.480469 67.304688 137.886719 66.988281 L 137.890625 66.988281 "/>
<path style=" stroke:none;fill-rule:nonzero;fill:rgb(41.999817%,0.39978%,19.999695%);fill-opacity:1;" d="M 119.152344 52.484375 L 137.9375 66.988281 C 138.34375 67.304688 138.421875 67.890625 138.105469 68.296875 C 138.085938 68.324219 138.0625 68.351563 138.039063 68.375 L 128.972656 78.667969 L 128.273438 78.054688 L 128.972656 78.671875 C 128.632813 79.054688 128.039063 79.09375 127.65625 78.753906 C 127.523438 78.636719 127.433594 78.496094 127.386719 78.339844 L 117.65625 53.511719 L 117.652344 53.511719 C 117.464844 53.035156 117.703125 52.492188 118.183594 52.304688 C 118.523438 52.171875 118.898438 52.253906 119.152344 52.484375 Z M 136.011719 67.855469 L 120.617188 55.964844 L 128.582031 76.289063 Z M 136.011719 67.855469 "/>
</g>
</svg>
